<svg xmlns="http://www.w3.org/2000/svg"><style>:root svg:not(:target){display:none}</style><svg fill="#666" aria-hidden="true" id="icon-tg" viewBox="0 0 20 18"><path fill-rule="evenodd" clip-rule="evenodd" d="M19.96.153c.18.15.265.382.227.611l-2.626 15.757a.657.657 0 0 1-1.012.439l-7.878-5.253a.656.656 0 0 1-.149-.956l2.611-3.263-4.36 2.906a.657.657 0 0 1-.658.041L.863 7.81a.657.657 0 0 1 .073-1.205L19.319.038a.657.657 0 0 1 .642.115ZM2.827 7.323 6.362 9.09l7.561-5.04a.656.656 0 0 1 .877.956l-4.805 6.006 6.438 4.292L18.708 1.65 2.826 7.323Z"></path></svg><svg fill="#666" aria-hidden="true" id="icon-vk" viewBox="0 0 27 17"><path d="M.5 2.339c0-.855.515-1.316 1.545-1.383l3.97.025a.52.52 0 0 1 .533.377c.409 1.257.866 2.343 1.372 3.257.506.913 1.168 1.965 1.985 3.156.071.15.187.226.346.226.125 0 .223-.059.293-.176l.08-.277.027-4.35c0-.302-.075-.503-.226-.604-.151-.1-.431-.176-.84-.226-.32-.05-.48-.235-.48-.553 0-.067.01-.118.027-.151C9.505.57 10.572.025 12.33.025L13.822 0c.675 0 1.234.16 1.678.478.444.318.666.821.666 1.509v5.708c.125.084.24.126.347.126.266 0 .497-.15.692-.453 1.954-2.582 3.011-4.308 3.17-5.18 0-.017.019-.059.054-.126.125-.251.329-.47.613-.654.284-.184.533-.31.746-.377a.554.554 0 0 1 .24-.05h4.13l.266.025c.355 0 .63.16.826.478.07.1.12.21.146.327.027.117.045.234.054.352.009.117.013.184.013.2v.177c-.124.687-.44 1.42-.946 2.2-.506.78-1.15 1.622-1.931 2.528-.782.905-1.27 1.5-1.466 1.785-.16.201-.24.386-.24.554 0 .134.071.285.213.452l3.89 4.627c.213.269.32.562.32.88 0 .386-.16.705-.48.956-.32.252-.701.394-1.145.428l-.453.025h-4.05a.855.855 0 0 0-.106.012.862.862 0 0 1-.107.013c-.39 0-.755-.16-1.092-.478-.125-.134-.96-1.123-2.505-2.967a1.387 1.387 0 0 0-.373-.327c-.07.268-.164.654-.28 1.157-.115.503-.2.863-.253 1.081l-.08.428c-.177.586-.55.938-1.119 1.056l-.373.025h-2.61c-1.475 0-2.945-.637-4.41-1.911-1.466-1.275-2.784-2.922-3.957-4.942C2.738 8.102 1.646 5.75.633 3.068a1.916 1.916 0 0 1-.133-.73Zm16.013 6.513c-.373 0-.71-.096-1.013-.29-.302-.192-.453-.456-.453-.791V1.987c0-.336-.089-.575-.266-.717-.178-.143-.489-.214-.933-.214l-1.518.05c-.764 0-1.341.126-1.732.378.781.352 1.172.922 1.172 1.71V7.62a1.5 1.5 0 0 1-.533 1.043 1.59 1.59 0 0 1-1.066.415c-.532 0-.94-.243-1.225-.729C7.56 6.371 6.53 4.493 5.856 2.716l-.24-.654-3.544-.025c-.231 0-.36.013-.386.038-.027.025-.04.096-.04.213 0 .151.017.31.053.478l.56 1.409c1.491 3.638 3.112 6.505 4.862 8.6 1.75 2.096 3.468 3.144 5.155 3.144h2.665c.106 0 .186-.03.24-.088.053-.06.097-.172.133-.34l.053-.251.506-2.213c.142-.302.267-.503.373-.604a.975.975 0 0 1 .693-.277c.426 0 .861.243 1.305.73l2.265 2.716c.142.218.293.327.453.327h4.396c.533 0 .8-.126.8-.378a.466.466 0 0 0-.08-.251l-3.864-4.552c-.302-.352-.453-.73-.453-1.131 0-.403.142-.788.427-1.157.23-.336.679-.893 1.345-1.673a37.63 37.63 0 0 0 1.745-2.188c.498-.679.826-1.295.986-1.848l.08-.327a.371.371 0 0 1-.027-.163.574.574 0 0 0-.026-.189h-4.183c-.267.1-.48.252-.64.453l-.16.478c-.444 1.156-1.607 2.942-3.49 5.356a1.892 1.892 0 0 1-1.305.503Z"></path></svg><svg fill="#666" aria-hidden="true" id="icon-youtube" viewBox="0 0 24 19"><path d="m16.35 8.793-5.236-3.491a.655.655 0 0 0-1.014.545v6.982a.654.654 0 0 0 1.014.546l5.237-3.491a.654.654 0 0 0 0-1.091Zm-4.94 2.814V7.07l3.403 2.27-3.404 2.268Zm12.48-8.563a2.4 2.4 0 0 0-1.452-1.637C18.718-.022 12.751 0 12.5 0c-.25 0-6.218-.022-9.938 1.407A2.4 2.4 0 0 0 1.11 3.044C.827 4.113.5 6.076.5 9.338c0 3.262.327 5.226.61 6.295a2.4 2.4 0 0 0 1.452 1.636c3.72 1.43 9.687 1.407 9.938 1.407h.076c.753 0 6.317-.043 9.862-1.407a2.4 2.4 0 0 0 1.451-1.636c.284-1.07.611-3.033.611-6.295s-.327-5.225-.61-6.294Zm-1.266 12.261a1.09 1.09 0 0 1-.655.742c-3.49 1.342-9.404 1.32-9.469 1.32-.066 0-5.978.022-9.47-1.32a1.09 1.09 0 0 1-.654-.742c-.261-1.003-.567-2.847-.567-5.967 0-3.12.306-4.963.567-5.967a1.09 1.09 0 0 1 .655-.742c3.49-1.342 9.403-1.32 9.469-1.32.066 0 5.978-.022 9.47 1.32a1.092 1.092 0 0 1 .654.742c.262 1.004.567 2.847.567 5.967 0 3.12-.305 4.964-.567 5.968Z"></path></svg><svg fill="#666" aria-label="Сайт HTML Academy" id="logo-htmlacademy" viewBox="0 0 27 34"><path fill-rule="evenodd" d="M14.143.016 14 0 .5 1.407v24.606L14 34l13.5-7.987V1.407L14.143.016Zm11.591 25L14 31.956 2.266 25.015V14.93l11.685 6.916.02 1.253-8.017-4.743-.011 1.225 8.046 4.809.02 1.286-8.045-4.758-.01 1.226L14 26.95l8.124-4.833V16.91l3.62-2.15-.01 10.256Zm0-11.564-3.22 1.88-1.482.875-7.065-4.187-.011 1.225 6.04 3.573-.053.031-.13.076-.86.492-4.986-2.948-.011 1.225 3.936 2.328-.933.61-.021.012-2.971-1.742-.011 1.225 1.947 1.135-1.988 1.186-11.618-6.872 11.638-6.958 11.8 6.834Zm0-1.225L13.94 5.31 2.266 12.22V2.99L14 1.764 25.734 2.99v9.237Z"></path></svg><svg fill="currentColor" aria-label="Главная страница сайта Cat Energy" id="logo-text-footer" viewBox="0 0 128 24"><g clip-path="url(#logo-text-footer_0)" fill="#111"><path d="M2.124 21.957A9.428 9.428 0 0 1 .52 16.238V7.762A9.559 9.559 0 0 1 2.023 1.94C3.125.613 4.827 0 7.331 0c2.503 0 4.106.613 5.107 1.736A7.433 7.433 0 0 1 13.94 6.74v2.043H9.033V6.434a5.116 5.116 0 0 0-.3-2.043 1.46 1.46 0 0 0-.579-.627 1.42 1.42 0 0 0-.823-.19c-.701 0-1.202.205-1.402.715a6.72 6.72 0 0 0-.3 2.247v10.928a4.3 4.3 0 0 0 .4 2.145c.2.51.701.714 1.402.714s1.102-.204 1.302-.715c.227-.69.33-1.417.3-2.144v-2.451h4.907v2.042a7.922 7.922 0 0 1-1.502 5.107C11.437 23.387 9.734 24 7.331 24c-2.403-.102-4.206-.715-5.207-2.043ZM19.848.306h5.708l4.206 23.285h-4.606l-.801-4.902H21.05l-.801 4.902h-4.707L19.848.306Zm4.106 15.32-1.202-9.09-1.201 9.09h2.403ZM33.267 4.187h-3.405V.307H41.78v3.778h-3.405v19.506h-5.107V4.187ZM50.892.306h8.812v2.451h-5.708v7.66h4.606v2.349h-4.606v8.579h5.708v2.349H50.79V.305h.1ZM62.308.306h2.203l6.509 15.422V.306h2.603v23.285h-2.002L65.01 7.66v15.932h-2.703V.306ZM76.628.306h8.812v2.451h-5.708v7.66h4.606v2.349h-4.606v8.579h5.708v2.349h-8.812V.305ZM88.043.306h4.607a7.896 7.896 0 0 1 5.107 1.43c1.102.92 1.602 2.553 1.602 4.698 0 2.962-.901 4.8-2.804 5.413l3.205 11.642h-3.105l-3.004-10.927h-2.503v10.927h-3.205V.306h.1Zm4.407 10.009a4.313 4.313 0 0 0 2.904-.817c.6-.51.901-1.532.901-3.064a6.72 6.72 0 0 0-.3-2.247 2.575 2.575 0 0 0-1.102-1.225 4.489 4.489 0 0 0-2.203-.409h-1.402v7.66h1.202v.102ZM103.365 21.855a10.485 10.485 0 0 1-1.402-5.923V8.17c-.025-1.48.144-2.957.501-4.391a5.186 5.186 0 0 1 1.902-2.656 6.44 6.44 0 0 1 3.706-.919c2.102 0 3.605.51 4.506 1.634a7.93 7.93 0 0 1 1.402 5.107v.817h-3.004v-.715c.004-.856-.063-1.71-.201-2.553a2.045 2.045 0 0 0-.801-1.328 3.048 3.048 0 0 0-1.902-.51 2.964 2.964 0 0 0-2.003.612 2.331 2.331 0 0 0-.801 1.634 19.568 19.568 0 0 0-.201 2.757v8.681a9.45 9.45 0 0 0 .601 3.881c.401.817 1.202 1.124 2.404 1.124.474.06.955-.024 1.383-.242a2.44 2.44 0 0 0 1.02-.984 9.572 9.572 0 0 0 .701-4.085V14.4h-2.904V12.05h5.808v11.54h-2.003l-.3-2.655a4.167 4.167 0 0 1-1.553 2.201 4.031 4.031 0 0 1-2.553.76 4.927 4.927 0 0 1-2.406-.467 5.031 5.031 0 0 1-1.9-1.575ZM120.489 15.421 115.582.408h3.004l3.505 11.235L125.496.408h3.004l-4.907 15.013v8.17h-3.004v-8.17h-.1Z"></path></g><defs><clipPath id="logo-text-footer_0"><path fill="#fff" transform="translate(.5)" d="M0 0h128v24H0z"></path></clipPath></defs></svg></svg>